<svg width="252" xmlns="http://www.w3.org/2000/svg" height="320" id="screenshot-52b71fa0-bf6a-80d5-8006-fcba1428a55b" viewBox="0 0 252 320" xmlns:xlink="http://www.w3.org/1999/xlink" fill="none" version="1.1"><g id="shape-52b71fa0-bf6a-80d5-8006-fcba1428a55b" rx="0" ry="0"><g id="shape-52b71fa0-bf6a-80d5-8006-fcba1428a55d"><g class="fills" id="fills-52b71fa0-bf6a-80d5-8006-fcba1428a55d"><path d="M64.06982421875,320C62.71435546875,320,61.35791015625,320,60,320C60,298.88525390625,60,277.76806640625,60,256.01318359375C60,256.0087890625,60,256.00439453125,60,256C40.219970703125,256,20.43994140625,256,0.061279296875,256C0.040771484375,256,0.0205078125,256,0,256C0,192.67236328125,0,129.3427734375,0,64.09814453125C0,64.095703125,0,64.09326171875,0,64.09130859375C0,64.06103515625,0,64.0302734375,0,64C19.780029296875,64,39.56005859375,64,59.938720703125,64C59.959228515625,64,59.9794921875,64,60,64C60,42.880859375,60,21.759765625,60,0C103.560546875,0,147.1201171875,0,192,0C192,21.09814453125,192,42.19775390625,192,63.9345703125C192,63.955078125,192,63.97509765625,192,63.99560546875C192,63.9970703125,192,63.99853515625,192,64C211.780029296875,64,231.56005859375,64,251.938720703125,64C251.959228515625,64,251.9794921875,64,252,64C252,127.32763671875,252,190.6572265625,252,255.90185546875C252,255.9345703125,252,255.96728515625,252,256C232.219970703125,256,212.43994140625,256,192.061279296875,256C192.040771484375,256,192.0205078125,256,192,256C192,277.119140625,192,298.240234375,192,320C190.68017578125,320,189.3603515625,320,188.040283203125,320M64,68C64,130.560546875,64,191.279296875,64,252C106.16015625,252,147.080078125,252,188,252C188,189.439453125,188,128.720703125,188,68C145.83984375,68,104.919921875,68,64,68" style="fill: rgb(76, 194, 254); fill-opacity: 1;"/></g></g></g></svg>